<?xml version="1.0" encoding="UTF-8"?>
<svg width="478px" height="478px" viewBox="0 0 478 478" version="1.1" xmlns="http://www.w3.org/2000/svg" xmlns:xlink="http://www.w3.org/1999/xlink">
    <!-- Generator: Sketch 63 (92445) - https://sketch.com -->
    <title>logo_basic_invert_transparent</title>
    <desc>Created with Sketch.</desc>
    <defs>
        <linearGradient x1="56.0440876%" y1="15.5380571%" x2="46.2303189%" y2="85.3132418%" id="linearGradient-1">
            <stop stop-color="#7E56F7" offset="0%"></stop>
            <stop stop-color="#677CF6" offset="38.8503051%"></stop>
            <stop stop-color="#3DB0F0" offset="100%"></stop>
        </linearGradient>
        <radialGradient cx="46.7598488%" cy="44.8486747%" fx="46.7598488%" fy="44.8486747%" r="68.312646%" gradientTransform="translate(0.467598,0.448487),scale(1.000000,0.716000),rotate(-37.126745),scale(1.000000,1.616335),translate(-0.467598,-0.448487)" id="radialGradient-2">
            <stop stop-color="#D2D3E0" stop-opacity="0" offset="0%"></stop>
            <stop stop-color="#E2E3EC" stop-opacity="0.245350346" offset="42.6885382%"></stop>
            <stop stop-color="#E7E7EF" stop-opacity="0.362185169" offset="58.698425%"></stop>
            <stop stop-color="#FFFFFF" offset="100%"></stop>
        </radialGradient>
        <path d="M143,14.8853479 C143,8.49764156 145.538631,3.64034402 150.057334,1.38174068 C154.576037,-0.876862668 160.704775,-0.350722119 167.09508,2.84413133 C201.327073,19.9527016 263.672527,51.115026 297.90452,68.2235963 C304.296626,71.4184497 310.424563,77.0179455 314.943466,83.7937556 C319.46237,90.5695656 322,97.9655413 322,104.353248 L322,235.113778 C322,241.501885 319.46237,246.359582 314.943466,248.617985 C310.424563,250.876589 304.296626,250.351048 297.90452,247.156995 C263.672527,230.047425 201.327073,198.8859 167.09508,181.77653 C160.704775,178.582477 154.576037,172.981581 150.057334,166.205971 C145.538631,159.430561 143,152.035385 143,145.647279 L143,14.8853479 Z" id="path-3"></path>
        <linearGradient x1="56.0440876%" y1="15.5380571%" x2="46.2303189%" y2="85.3132418%" id="linearGradient-4">
            <stop stop-color="#5EE2E7" offset="0%"></stop>
            <stop stop-color="#99E7C4" offset="27.3977292%"></stop>
            <stop stop-color="#E6ED43" offset="100%"></stop>
        </linearGradient>
        <path d="M72,49.8853479 C72,43.4976416 74.538631,38.640344 79.057334,36.3817407 C83.5760371,34.1231373 89.7047746,34.6492779 96.0950801,37.8441313 C130.327073,54.9527016 192.672527,86.115026 226.90452,103.223596 C233.296626,106.41845 239.424563,112.017946 243.943466,118.793756 C248.46237,125.569566 251,132.965541 251,139.353248 L251,270.113778 C251,276.501885 248.46237,281.359582 243.943466,283.617985 C239.424563,285.876589 233.296626,285.351048 226.90452,282.156995 C192.672527,265.047425 130.327073,233.8859 96.0950801,216.77653 C89.7047746,213.582477 83.5760371,207.981581 79.057334,201.205971 C74.538631,194.430561 72,187.035385 72,180.647279 L72,49.8853479 Z" id="path-5"></path>
        <linearGradient x1="53.8006737%" y1="13.7426659%" x2="44.8212944%" y2="111.545525%" id="linearGradient-6">
            <stop stop-color="#F66B9F" offset="0%"></stop>
            <stop stop-color="#ED5F72" offset="24.8291603%"></stop>
            <stop stop-color="#E86B74" offset="48.9694012%"></stop>
            <stop stop-color="#EB8970" offset="72.2933319%"></stop>
            <stop stop-color="#F7C662" offset="100%"></stop>
        </linearGradient>
        <path d="M0,85.8853479 C0,79.4976416 2.53863096,74.640344 7.05733404,72.3817407 C11.5760371,70.1231373 17.7047746,70.6492779 24.0950801,73.8441313 C58.3270727,90.9527016 120.672527,122.115026 154.90452,139.223596 C161.296626,142.41845 167.424563,148.017946 171.943466,154.793756 C176.46237,161.569566 179,168.965541 179,175.353248 L179,306.113778 C179,312.501885 176.46237,317.359582 171.943466,319.617985 C167.424563,321.876589 161.296626,321.351048 154.90452,318.156995 C120.672527,301.047425 58.3270727,269.8859 24.0950801,252.77653 C17.7047746,249.582477 11.5760371,243.981581 7.05733404,237.205971 C2.53863096,230.430561 0,223.035385 0,216.647279 L0,85.8853479 Z" id="path-7"></path>
    </defs>
    <g id="Page-1" stroke="none" stroke-width="1" fill="none" fill-rule="evenodd">
        <g id="logo_basic_invert">
            <g id="logo" transform="translate(77.000000, 79.000000)">
                <g id="_logo_src">
                    <g id="root">
                        <g id="frame_back" opacity="0.95">
                            <use fill="url(#linearGradient-1)" xlink:href="#path-3"></use>
                            <use fill-opacity="0.6" fill="url(#radialGradient-2)" xlink:href="#path-3"></use>
                        </g>
                        <g id="pic/moon" transform="translate(270.000000, 90.000000)" fill="#000000" opacity="0.79594494">
                            <path d="M1.75859327e-13,17.110352 C1.75859327e-13,5.39934185 5.46176723,-1.3871131 12.7511994,0.23898357 C11.6898058,2.90788075 11.0933226,6.24020854 11.0933226,10.1103503 C11.0933226,23.6002006 18.3403305,38.5159211 27.2799678,43.4255444 C28.4585041,44.0727932 29.6076227,44.5138252 30.7145972,44.7608553 C28.0757447,51.3939718 22.5615644,53.9266336 16.1866452,50.4255462 C7.24700791,45.5159228 1.75859327e-13,30.6002024 1.75859327e-13,17.110352 Z" id="moon"></path>
                        </g>
                        <g id="frame_mid" opacity="0.95">
                            <use fill="url(#linearGradient-4)" xlink:href="#path-5"></use>
                            <use fill-opacity="0.6" fill="url(#radialGradient-2)" xlink:href="#path-5"></use>
                        </g>
                        <path d="M212.757497,183.5 C217.647918,183.5 222.269797,185.736557 225.304442,189.571548 L250.999984,222.043969 L251,270.113778 C251,276.501885 248.46237,281.359582 243.943466,283.617985 C239.424563,285.876589 233.296626,285.351048 226.90452,282.156995 C192.672527,265.047425 130.327073,233.8859 96.0950801,216.77653 C89.7047746,213.582477 83.5760371,207.981581 79.057334,201.205971 C75.1972393,195.418088 72.782083,189.177937 72.1600591,183.499654 L212.757497,183.5 Z" id="picture_mid" fill="#000000" opacity="0.79594494"></path>
                        <g id="frame_front" opacity="0.95">
                            <use fill="url(#linearGradient-6)" xlink:href="#path-7"></use>
                            <use fill-opacity="0.6" fill="url(#radialGradient-2)" xlink:href="#path-7"></use>
                        </g>
                        <path d="M60.6834858,185.577818 L141.441766,311.428126 C106.093026,293.760301 54.2130147,267.829668 24.0950801,252.77653 C17.7047746,249.582477 11.5760371,243.981581 7.05733404,237.205971 C2.53863096,230.430561 0,223.035385 0,216.647279 L0,181.969571 L45.9330772,178.27049 C51.8218924,177.796223 57.4928475,180.605605 60.6834858,185.577818 Z" id="picture_front" fill="#000000" opacity="0.79594494"></path>
                    </g>
                </g>
            </g>
        </g>
    </g>
</svg>