<?xml version="1.0" encoding="UTF-8"?>
<svg width="512px" height="512px" viewBox="0 0 512 512" version="1.1" xmlns="http://www.w3.org/2000/svg" xmlns:xlink="http://www.w3.org/1999/xlink">
    <!-- Generator: Sketch 63 (92445) - https://sketch.com -->
    <title>logo_hex_outline_transparent</title>
    <desc>Created with Sketch.</desc>
    <defs>
        <path d="M96.0950801,2.84413133 C130.327073,19.9527016 192.672527,51.115026 226.90452,68.2235963 C233.296626,71.4184497 239.424563,77.0179455 243.943466,83.7937556 C248.46237,90.5695656 251,97.9655413 251,104.353248 L251,235.113778 C251,241.501885 248.46237,246.359582 243.943466,248.617985 C239.424563,250.876589 233.296626,250.351048 226.90452,247.156995 C213.948842,240.681588 196.96627,232.193418 179.004896,223.216025 L179,271.113778 C179,277.501885 176.46237,282.359582 171.943466,284.617985 C167.424563,286.876589 161.296626,286.351048 154.90452,283.156995 C120.672527,266.047425 58.3270727,234.8859 24.0950801,217.77653 C17.7047746,214.582477 11.5760371,208.981581 7.05733404,202.205971 C2.53863096,195.430561 0,188.035385 0,181.647279 L0,50.8853479 C0,44.4976416 2.53863096,39.640344 7.05733404,37.3817407 C11.5760371,35.1231373 17.7047746,35.6492779 24.0950801,38.8441313 C37.0519975,45.3197793 54.0365801,53.8088333 71.9998598,62.7871323 L72,14.8853479 C72,8.49764156 74.538631,3.64034402 79.057334,1.38174068 C83.5760371,-0.876862668 89.7047746,-0.350722119 96.0950801,2.84413133 Z" id="path-1"></path>
        <path d="M24.0950801,2.84413133 C58.3270727,19.9527016 120.672527,51.115026 154.90452,68.2235963 C161.296626,71.4184497 167.424563,77.0179455 171.943466,83.7937556 C176.46237,90.5695656 179,97.9655413 179,104.353248 L179,235.113778 C179,241.501885 176.46237,246.359582 171.943466,248.617985 C167.424563,250.876589 161.296626,250.351048 154.90452,247.156995 C142.189573,240.801909 125.595991,232.508163 108.005091,223.715939 L108,139.353248 C108,132.965541 105.46237,125.569566 100.943466,118.793756 C96.4245633,112.017946 90.2966263,106.41845 83.9045197,103.223596 C62.388536,92.470272 29.7661763,76.1649356 -0.00108152427,61.2868479 L0,14.8853479 C0,8.49764156 2.53863096,3.64034402 7.05733404,1.38174068 C11.5760371,-0.876862668 17.7047746,-0.350722119 24.0950801,2.84413133 Z" id="path-3"></path>
        <path d="M24.0950801,2.84413133 C58.3270727,19.9527016 120.672527,51.115026 154.90452,68.2235963 C161.296626,71.4184497 167.424563,77.0179455 171.943466,83.7937556 C176.46237,90.5695656 179,97.9655413 179,104.353248 L179,235.113778 C179,241.501885 176.46237,246.359582 171.943466,248.617985 C167.424563,250.876589 161.296626,250.351048 154.90452,247.156995 C141.947843,240.681089 124.96365,232.192109 107.000741,223.213948 L107,140.353248 C107,133.965541 104.46237,126.569566 99.9434665,119.793756 C95.4245633,113.017946 89.2966263,107.41845 82.9045197,104.223596 C61.6285921,93.590248 29.4927358,77.5280851 -0.0036855978,62.7853603 L-5.42101086e-20,14.8853479 C-5.42101086e-20,8.49764156 2.53863096,3.64034402 7.05733404,1.38174068 C11.5760371,-0.876862668 17.7047746,-0.350722119 24.0950801,2.84413133 Z" id="path-5"></path>
    </defs>
    <g id="Page-1" stroke="none" stroke-width="1" fill="none" fill-rule="evenodd">
        <g id="logo_hex_outline">
            <g id="logo" transform="translate(22.000000, 8.000000)">
                <path d="M243.753341,2.53902353 C236.984285,-0.846341178 229.016918,-0.846341178 222.245858,2.53902353 C184.084253,21.61325 55.2078825,86.0293287 13.2924379,106.978526 C5.14592523,111.05098 0,119.37417 0,128.478597 C0,175.469062 0,320.530938 0,367.520802 C0,376.62583 5.14592523,384.949421 13.2924379,389.021273 C55.2078825,409.971673 184.084253,474.388152 222.245858,493.462178 C229.016918,496.845941 236.984285,496.845941 243.753341,493.462178 C281.914945,474.388152 410.79352,409.971673 452.708364,389.021273 C460.854075,384.949421 466,376.62583 466,367.520802 C466,320.530938 466,175.469062 466,128.478597 C466,119.37417 460.854075,111.05098 452.708364,106.978526 C410.79352,86.0293287 281.914945,21.61325 243.753341,2.53902353 Z" id="hexagon" stroke="#FFFFFF" stroke-width="3"></path>
                <g id="Group-2" transform="translate(72.000000, 123.000000)">
                    <mask id="mask-2" fill="white">
                        <use xlink:href="#path-1"></use>
                    </mask>
                    <use id="frame_front-copy-3" stroke="#FFFFFF" stroke-width="3" xlink:href="#path-1"></use>
                    <path d="M72,14.8853479 C72,8.49764156 74.538631,3.64034402 79.057334,1.38174068 C83.5760371,-0.876862668 89.7047746,-0.350722119 96.0950801,2.84413133 C130.327073,19.9527016 192.672527,51.115026 226.90452,68.2235963 C233.296626,71.4184497 239.424563,77.0179455 243.943466,83.7937556 C248.46237,90.5695656 251,97.9655413 251,104.353248 L251,235.113778 C251,241.501885 248.46237,246.359582 243.943466,248.617985 C239.424563,250.876589 233.296626,250.351048 226.90452,247.156995 C192.672527,230.047425 130.327073,198.8859 96.0950801,181.77653 C89.7047746,178.582477 83.5760371,172.981581 79.057334,166.205971 C74.538631,159.430561 72,152.035385 72,145.647279 L72,14.8853479 Z" id="frame_mid-copy-2" stroke="#59606F" stroke-width="3" stroke-dasharray="7,6" mask="url(#mask-2)"></path>
                    <path d="M72,148.5 L210.757497,148.5 L210.757497,148.5 C215.647918,148.5 220.269797,150.736557 223.304442,154.571548 L251,189.571 L251,245.113778 C251,251.501885 248.46237,256.359582 243.943466,258.617985 C239.424563,260.876589 233.296626,260.351048 226.90452,257.156995" id="Path" stroke="#59606F" stroke-width="3" stroke-dasharray="7,6" mask="url(#mask-2)"></path>
                    <path d="M143,-20.1146521 C143,-26.5023584 145.538631,-31.359656 150.057334,-33.6182593 C154.576037,-35.8768627 160.704775,-35.3507221 167.09508,-32.1558687 C201.327073,-15.0472984 263.672527,16.115026 297.90452,33.2235963 C304.296626,36.4184497 310.424563,42.0179455 314.943466,48.7937556 C319.46237,55.5695656 322,62.9655413 322,69.3532477 L322,200.113778 C322,206.501885 319.46237,211.359582 314.943466,213.617985 C310.424563,215.876589 304.296626,215.351048 297.90452,212.156995 C263.672527,195.047425 201.327073,163.8859 167.09508,146.77653 C160.704775,143.582477 154.576037,137.981581 150.057334,131.205971 C145.538631,124.430561 143,117.035385 143,110.647279 L143,-20.1146521 Z" id="frame_back" stroke="#59606F" stroke-width="3" stroke-dasharray="7,6" mask="url(#mask-2)"></path>
                </g>
                <g id="Group-4" transform="translate(215.000000, 88.000000)">
                    <mask id="mask-4" fill="white">
                        <use xlink:href="#path-3"></use>
                    </mask>
                    <use id="frame_back-copy-2" stroke="#FFFFFF" stroke-width="3" xlink:href="#path-3"></use>
                    <path d="M0,14.8853479 C0,8.49764156 2.53863096,3.64034402 7.05733404,1.38174068 C11.5760371,-0.876862668 17.7047746,-0.350722119 24.0950801,2.84413133 C58.3270727,19.9527016 120.672527,51.115026 154.90452,68.2235963 C161.296626,71.4184497 167.424563,77.0179455 171.943466,83.7937556 C176.46237,90.5695656 179,97.9655413 179,104.353248 L179,235.113778 C179,241.501885 176.46237,246.359582 171.943466,248.617985 C167.424563,250.876589 161.296626,250.351048 154.90452,247.156995 C120.672527,230.047425 58.3270727,198.8859 24.0950801,181.77653 C17.7047746,178.582477 11.5760371,172.981581 7.05733404,166.205971 C2.53863096,159.430561 0,152.035385 0,145.647279 L0,14.8853479 Z" id="frame_back" stroke="#FFFFFF" stroke-width="3" mask="url(#mask-4)"></path>
                    <path d="M127,107.110352 C127,95.7435213 132.145449,89.0160399 139.113332,90.1173237 C138.453909,92.417327 138.093323,95.1012787 138.093323,98.1103503 C138.093323,111.600201 145.340331,126.515921 154.279968,131.425544 C155.686614,132.198071 157.051353,132.676827 158.352546,132.882581 C156.05616,140.89214 150.132279,144.240068 143.186645,140.425546 C134.247008,135.515923 127,120.600202 127,107.110352 Z" id="picture_back" stroke="#FFFFFF" stroke-width="3" mask="url(#mask-4)"></path>
                </g>
                <g id="Group-3" transform="translate(144.000000, 123.000000)">
                    <mask id="mask-6" fill="white">
                        <use xlink:href="#path-5"></use>
                    </mask>
                    <use id="frame_front-2" stroke="#FFFFFF" stroke-width="3" xlink:href="#path-5"></use>
                    <path d="M0,14.8853479 C0,8.49764156 2.53863096,3.64034402 7.05733404,1.38174068 C11.5760371,-0.876862668 17.7047746,-0.350722119 24.0950801,2.84413133 C58.3270727,19.9527016 120.672527,51.115026 154.90452,68.2235963 C161.296626,71.4184497 167.424563,77.0179455 171.943466,83.7937556 C176.46237,90.5695656 179,97.9655413 179,104.353248 L179,235.113778 C179,241.501885 176.46237,246.359582 171.943466,248.617985 C167.424563,250.876589 161.296626,250.351048 154.90452,247.156995 C120.672527,230.047425 58.3270727,198.8859 24.0950801,181.77653 C17.7047746,178.582477 11.5760371,172.981581 7.05733404,166.205971 C2.53863096,159.430561 0,152.035385 0,145.647279 L0,14.8853479 Z" id="frame_mid" stroke="#FFFFFF" stroke-width="3" mask="url(#mask-6)"></path>
                    <path d="M138.757497,148.5 C143.647918,148.5 148.269797,150.736557 151.304442,154.571548 L178.999984,189.570969 L179,235.113778 C179,241.501885 176.46237,246.359582 171.943466,248.617985 C167.424563,250.876589 161.296626,250.351048 154.90452,247.156995 C120.672527,230.047425 58.3270727,198.8859 24.0950801,181.77653 C17.7047746,178.582477 11.5760371,172.981581 7.05733404,166.205971 C3.19723932,160.418088 0.782082961,154.177937 0.160059061,148.499654 L138.757497,148.5 Z" id="picture_mid" stroke="#FFFFFF" stroke-width="3" mask="url(#mask-6)"></path>
                </g>
                <path d="M72,173.885348 C72,167.497642 74.538631,162.640344 79.057334,160.381741 C83.5760371,158.123137 89.7047746,158.649278 96.0950801,161.844131 C130.327073,178.952702 192.672527,210.115026 226.90452,227.223596 C233.296626,230.41845 239.424563,236.017946 243.943466,242.793756 C248.46237,249.569566 251,256.965541 251,263.353248 L251,394.113778 C251,400.501885 248.46237,405.359582 243.943466,407.617985 C239.424563,409.876589 233.296626,409.351048 226.90452,406.156995 C192.672527,389.047425 130.327073,357.8859 96.0950801,340.77653 C89.7047746,337.582477 83.5760371,331.981581 79.057334,325.205971 C74.538631,318.430561 72,311.035385 72,304.647279 L72,173.885348 Z" id="frame_front" stroke="#FFFFFF" stroke-width="3"></path>
                <path d="M127.763019,273.305541 L212.480264,398.947553 C177.157955,381.292934 125.941081,355.693753 96.0950801,340.77653 C89.7047746,337.582477 83.5760371,331.981581 79.057334,325.205971 C74.538631,318.430561 72,311.035385 72,304.647279 L72,269.859254 L113.120757,266.309719 C118.909726,265.809952 124.514627,268.487877 127.763019,273.305541 Z" id="picture_front" stroke="#FFFFFF" stroke-width="3"></path>
            </g>
        </g>
    </g>
</svg>