<?xml version="1.0" encoding="UTF-8" standalone="no"?>
<svg
   xmlns:dc="http://purl.org/dc/elements/1.1/"
   xmlns:cc="http://creativecommons.org/ns#"
   xmlns:rdf="http://www.w3.org/1999/02/22-rdf-syntax-ns#"
   xmlns:svg="http://www.w3.org/2000/svg"
   xmlns="http://www.w3.org/2000/svg"
   xmlns:sodipodi="http://sodipodi.sourceforge.net/DTD/sodipodi-0.dtd"
   xmlns:inkscape="http://www.inkscape.org/namespaces/inkscape"
   inkscape:version="1.0 (6e3e5246a0, 2020-05-07)"
   sodipodi:docname="logo_hex_full_invert.svg"
   id="svg68"
   version="1.1"
   viewBox="0 0 1120 512"
   height="512px"
   width="1120px">
  <metadata
     id="metadata72">
    <rdf:RDF>
      <cc:Work
         rdf:about="">
        <dc:format>image/svg+xml</dc:format>
        <dc:type
           rdf:resource="http://purl.org/dc/dcmitype/StillImage" />
      </cc:Work>
    </rdf:RDF>
  </metadata>
  <sodipodi:namedview
     inkscape:current-layer="svg68"
     inkscape:window-maximized="0"
     inkscape:window-y="310"
     inkscape:window-x="1098"
     inkscape:cy="184.71763"
     inkscape:cx="152.2329"
     inkscape:zoom="0.28058036"
     showgrid="false"
     id="namedview70"
     inkscape:window-height="480"
     inkscape:window-width="818"
     inkscape:pageshadow="2"
     inkscape:pageopacity="0"
     guidetolerance="10"
     gridtolerance="10"
     objecttolerance="10"
     borderopacity="1"
     bordercolor="#666666"
     pagecolor="#ffffff"
     inkscape:document-rotation="0" />
  <!-- Generator: Sketch 63 (92445) - https://sketch.com -->
  <title
     id="title2">logo_hex_full_invert</title>
  <desc
     id="desc4">Created with Sketch.</desc>
  <defs
     id="defs39">
    <linearGradient
       gradientUnits="userSpaceOnUse"
       gradientTransform="scale(0.84616783,1.1817986)"
       id="linearGradient-1"
       y2="173.88427"
       x2="269.56986"
       y1="42.565008"
       x1="288.29176">
      <stop
         id="stop6"
         offset="0%"
         stop-color="#7E56F7" />
      <stop
         id="stop8"
         offset="44.5254486%"
         stop-color="#677CF6" />
      <stop
         id="stop10"
         offset="100%"
         stop-color="#3DB0F0" />
    </linearGradient>
    <radialGradient
       id="radialGradient-2"
       gradientTransform="translate(0.467598,0.448487),scale(1.000000,0.716000),rotate(-37.126745),scale(1.000000,1.616335),translate(-0.467598,-0.448487)"
       r="68.312646%"
       fy="44.8486747%"
       fx="46.7598488%"
       cy="44.8486747%"
       cx="46.7598488%">
      <stop
         id="stop13"
         offset="0%"
         stop-opacity="0"
         stop-color="#D2D3E0" />
      <stop
         id="stop15"
         offset="42.6885382%"
         stop-opacity="0.245350346"
         stop-color="#E2E3EC" />
      <stop
         id="stop17"
         offset="58.698425%"
         stop-opacity="0.362185169"
         stop-color="#E7E7EF" />
      <stop
         id="stop19"
         offset="100%"
         stop-color="#FFFFFF" />
    </radialGradient>
    <path
       id="path-3"
       d="M143,14.8853479 C143,8.49764156 145.538631,3.64034402 150.057334,1.38174068 C154.576037,-0.876862668 160.704775,-0.350722119 167.09508,2.84413133 C201.327073,19.9527016 263.672527,51.115026 297.90452,68.2235963 C304.296626,71.4184497 310.424563,77.0179455 314.943466,83.7937556 C319.46237,90.5695656 322,97.9655413 322,104.353248 L322,235.113778 C322,241.501885 319.46237,246.359582 314.943466,248.617985 C310.424563,250.876589 304.296626,250.351048 297.90452,247.156995 C263.672527,230.047425 201.327073,198.8859 167.09508,181.77653 C160.704775,178.582477 154.576037,172.981581 150.057334,166.205971 C145.538631,159.430561 143,152.035385 143,145.647279 L143,14.8853479 Z" />
    <linearGradient
       gradientUnits="userSpaceOnUse"
       gradientTransform="scale(0.84616783,1.1817986)"
       id="linearGradient-4"
       y2="179.99111"
       x2="186.24635"
       y1="68.710915"
       x1="197.88928">
      <stop
         id="stop23"
         offset="0%"
         stop-color="#5EE2E7" />
      <stop
         id="stop25"
         offset="41.5341969%"
         stop-color="#99E7C4" />
      <stop
         id="stop27"
         offset="100%"
         stop-color="#E6ED43" />
    </linearGradient>
    <path
       id="path-5"
       d="M72,49.8853479 C72,43.4976416 74.538631,38.640344 79.057334,36.3817407 C83.5760371,34.1231373 89.7047746,34.6492779 96.0950801,37.8441313 C130.327073,54.9527016 192.672527,86.115026 226.90452,103.223596 C233.296626,106.41845 239.424563,112.017946 243.943466,118.793756 C248.46237,125.569566 251,132.965541 251,139.353248 L251,270.113778 C251,276.501885 248.46237,281.359582 243.943466,283.617985 C239.424563,285.876589 233.296626,285.351048 226.90452,282.156995 C192.672527,265.047425 130.327073,233.8859 96.0950801,216.77653 C89.7047746,213.582477 83.5760371,207.981581 79.057334,201.205971 C74.538631,194.430561 72,187.035385 72,180.647279 L72,49.8853479 Z" />
    <linearGradient
       gradientUnits="userSpaceOnUse"
       gradientTransform="scale(0.84616783,1.1817986)"
       id="linearGradient-6"
       y2="240.55122"
       x2="97.796522"
       y1="92.947428"
       x1="118.55675">
      <stop
         id="stop31"
         offset="0%"
         stop-color="#F458BA" />
      <stop
         id="stop33"
         offset="51.5179513%"
         stop-color="#EE767A" />
      <stop
         id="stop35"
         offset="100%"
         stop-color="#FAD58A" />
    </linearGradient>
    <path
       id="path-7"
       d="M0,85.8853479 C0,79.4976416 2.53863096,74.640344 7.05733404,72.3817407 C11.5760371,70.1231373 17.7047746,70.6492779 24.0950801,73.8441313 C58.3270727,90.9527016 120.672527,122.115026 154.90452,139.223596 C161.296626,142.41845 167.424563,148.017946 171.943466,154.793756 C176.46237,161.569566 179,168.965541 179,175.353248 L179,306.113778 C179,312.501885 176.46237,317.359582 171.943466,319.617985 C167.424563,321.876589 161.296626,321.351048 154.90452,318.156995 C120.672527,301.047425 58.3270727,269.8859 24.0950801,252.77653 C17.7047746,249.582477 11.5760371,243.981581 7.05733404,237.205971 C2.53863096,230.430561 0,223.035385 0,216.647279 L0,85.8853479 Z" />
  </defs>
  <g
     id="g92">
    <g
       id="g82">
      <path
         fill-rule="nonzero"
         fill="#ffffff"
         id="text"
         d="m 660.1875,254.30208 c 0.0868,0.60764 0.13021,2.03992 0.13021,4.29688 0,6.16322 -0.93315,12.04424 -2.79948,17.64323 -1.86633,5.59898 -4.53557,10.48175 -8.00781,14.64843 -3.90627,4.77433 -8.68053,8.31162 -14.32292,10.61198 -5.64239,2.30036 -11.80552,3.45052 -18.48958,3.45052 -6.85768,0 -13.15102,-1.30207 -18.88021,-3.90625 -5.7292,-2.60417 -10.50346,-6.42358 -14.32292,-11.45833 -6.85767,-9.28824 -10.28646,-20.44264 -10.28646,-33.46354 0,-13.97576 3.47219,-25.21697 10.41667,-33.72396 3.90627,-4.94794 8.70223,-8.70224 14.38802,-11.26302 5.68579,-2.56078 11.91403,-3.84115 18.6849,-3.84115 12.23964,0 22.00517,3.51559 29.29687,10.54688 5.55559,4.77433 9.33159,10.93746 11.32813,18.48958 l -14.71355,2.47396 c -1.4757,-4.07988 -3.4288,-7.29165 -5.85937,-9.63542 -2.25696,-2.51737 -5.01301,-4.44877 -8.26823,-5.79427 -3.25522,-1.34549 -6.74911,-2.01823 -10.48177,-2.01823 -4.60072,0 -8.91925,0.86805 -12.95573,2.60417 -4.03648,1.73612 -7.26995,4.29686 -9.70052,7.68229 -4.51391,5.7292 -6.77083,13.88884 -6.77083,24.47917 0,10.50353 2.25692,18.70657 6.77083,24.60937 2.43057,3.29863 5.55554,5.81597 9.375,7.55209 3.81946,1.73612 7.89928,2.60416 12.23958,2.60416 8.33338,0 14.97394,-2.64754 19.92188,-7.9427 2.17015,-2.34377 3.88454,-5.05641 5.14323,-8.13802 1.25868,-3.08162 2.06163,-6.27169 2.40885,-9.57032 h -20.70312 v -10.9375 z M 685.73958,303 h -13.67187 v -95.70313 h 13.67187 z m 30.63021,-95.44271 v 13.15104 h -13.67187 v -13.15104 z m 0,25.13021 V 303 h -13.67187 v -70.3125 z m 106.41146,4.03646 c 3.12502,2.9514 5.14323,6.14147 6.05469,9.57031 0.91146,3.42884 1.36718,7.96438 1.36718,13.60677 V 303 h -13.80208 l 0.13021,-42.1875 c 0,-3.47224 -0.30382,-6.22829 -0.91146,-8.26823 -0.60764,-2.03994 -1.82291,-3.92794 -3.64583,-5.66406 -1.21529,-1.21529 -2.66926,-2.14844 -4.36198,-2.79948 -1.69272,-0.65105 -3.45051,-0.97656 -5.27344,-0.97656 -2.08334,0 -4.07985,0.41232 -5.98958,1.23698 -1.90973,0.82465 -3.55902,2.01822 -4.94792,3.58072 -1.30209,1.64932 -2.19184,3.34201 -2.66927,5.07813 -0.47743,1.73612 -0.71615,3.73263 -0.71615,5.98958 v 0.91146 L 787.88542,303 h -13.67188 v -42.1875 c 0,-3.47224 -0.30382,-6.22829 -0.91146,-8.26823 -0.60764,-2.03994 -1.8229,-3.92794 -3.64583,-5.66406 -1.21528,-1.21529 -2.64756,-2.14844 -4.29688,-2.79948 -1.64931,-0.65105 -3.3854,-0.97656 -5.20833,-0.97656 -2.17015,0 -4.21006,0.41232 -6.11979,1.23698 -1.90973,0.82465 -3.51562,2.01822 -4.81771,3.58072 -1.38889,1.64932 -2.32205,3.34201 -2.79948,5.07813 -0.47743,1.73612 -0.71614,3.73263 -0.71614,5.98958 V 303 h -13.67188 v -70.3125 h 12.10938 v 7.68229 c 2.34376,-2.9514 5.27342,-5.27343 8.78906,-6.96614 3.51564,-1.69272 7.22654,-2.53907 11.13281,-2.53907 3.03821,0 6.05467,0.47743 9.04948,1.43229 2.99481,0.95487 5.49044,2.43055 7.48698,4.42709 1.64931,1.4757 3.12499,3.342 4.42708,5.59896 v -0.13021 c 2.25696,-3.55905 5.29512,-6.3368 9.11459,-8.33334 3.81946,-1.99653 7.85588,-2.99479 12.10937,-2.99479 3.03821,0 6.05467,0.47743 9.04948,1.43229 2.99481,0.95487 5.49044,2.43055 7.48698,4.42709 z m 53.28646,-5.98959 c 6.42364,0 12.06595,1.60589 16.92708,4.81771 4.86114,3.21182 8.61544,7.63886 11.26302,13.28125 2.64758,5.64239 3.97136,11.97913 3.97136,19.01042 0,7.03129 -1.30207,13.36803 -3.90625,19.01042 -2.60418,5.64239 -6.31508,10.06942 -11.13282,13.28125 -4.81773,3.21182 -10.43833,4.8177 -16.86198,4.8177 -7.81253,0 -14.27948,-2.30032 -19.40104,-6.90104 V 334.25 H 843.25521 V 232.6875 h 12.10937 v 6.38021 c 5.29517,-5.55559 12.19614,-8.33334 20.70313,-8.33334 z m -1.5625,61.84896 c 6.25003,0 11.02429,-2.30032 14.32291,-6.90104 3.29863,-4.60072 4.94792,-10.54684 4.94792,-17.83854 0,-7.2917 -1.67099,-13.23782 -5.01302,-17.83854 -3.34203,-4.60072 -8.2682,-6.90104 -14.77865,-6.90104 -6.16322,0 -10.80727,2.21352 -13.93229,6.64062 -3.12501,4.42711 -4.6875,10.46003 -4.6875,18.09896 0,7.63893 1.58419,13.67185 4.75261,18.09896 3.16842,4.4271 7.96437,6.64062 14.38802,6.64062 z m 84.01562,-38.67187 c -0.60764,-3.64585 -2.38714,-6.4236 -5.33854,-8.33334 -2.9514,-1.90973 -6.5972,-2.86458 -10.9375,-2.86458 -3.73266,0 -6.81422,0.73784 -9.24479,2.21354 -2.43057,1.4757 -3.64583,3.42881 -3.64583,5.85938 0,1.99654 0.75954,3.64582 2.27864,4.94791 1.51911,1.3021 3.75433,2.34375 6.70573,3.125 3.03821,0.95487 7.37845,2.12673 13.02083,3.51563 7.29171,1.82293 12.6953,4.27516 16.21094,7.35677 3.51565,3.08161 5.27344,7.44355 5.27344,13.08594 0,6.94448 -2.60414,12.36977 -7.8125,16.27604 -5.20836,3.90627 -11.93572,5.85937 -20.18229,5.85937 -8.59379,0 -15.64668,-1.77949 -21.15886,-5.33854 -5.51218,-3.55904 -8.91926,-8.98434 -10.22135,-16.27604 l 13.93229,-2.21354 c 0.86806,3.90627 2.92967,6.85763 6.1849,8.85417 3.25522,1.99653 7.18313,2.99479 11.78385,2.99479 3.90627,0 7.11805,-0.82465 9.63542,-2.47396 2.51737,-1.64931 3.77604,-3.99304 3.77604,-7.03125 0,-2.51737 -0.88975,-4.42708 -2.66927,-5.72917 -1.77952,-1.30209 -4.49217,-2.47395 -8.13802,-3.51562 l -15.88542,-4.42709 c -10.93755,-3.12501 -16.40625,-9.28814 -16.40625,-18.48958 0,-4.3403 1.25867,-8.0729 3.77604,-11.19792 2.51738,-3.12501 5.83766,-5.46874 9.96094,-7.03125 4.12328,-1.5625 8.61543,-2.34375 13.47656,-2.34375 7.89935,0 14.58331,1.84461 20.05209,5.53386 5.46877,3.68925 8.63714,8.74563 9.5052,15.16927 z m 35.44792,17.70833 c 0.52084,6.42364 2.47394,11.43662 5.85937,15.03906 3.38548,3.60245 8.02948,5.40365 13.93228,5.40365 4.1667,0 7.8342,-0.95485 11.0026,-2.86458 3.1684,-1.90974 5.6207,-4.68749 7.3568,-8.33334 l 13.2812,4.29688 c -2.6041,6.16322 -6.7057,11.00258 -12.3046,14.51823 -5.599,3.51564 -11.7839,5.27343 -18.5547,5.27343 -7.1181,0 -13.3247,-1.56248 -18.61983,-4.6875 -5.29516,-3.12501 -9.37498,-7.44354 -12.23958,-12.95572 -2.8646,-5.51219 -4.29687,-11.78382 -4.29687,-18.81511 0,-7.46531 1.41057,-14.06247 4.23177,-19.79167 2.82119,-5.72919 6.81421,-10.15623 11.97916,-13.28125 5.16495,-3.12501 11.21955,-4.6875 18.16405,-4.6875 10.5035,0 18.5981,3.38539 24.2839,10.15625 5.6858,6.77087 8.5286,15.79856 8.5286,27.08334 0,1.56251 -0.043,2.77777 -0.1302,3.64583 z M 1013.5,242.84375 c -5.5556,0 -9.9175,1.58419 -13.0859,4.7526 -3.16846,3.16842 -5.18666,7.53036 -6.05473,13.08594 h 38.02083 c -0.6944,-5.90281 -2.5173,-10.35155 -5.4687,-13.34635 -2.9514,-2.99481 -7.4219,-4.49219 -13.4115,-4.49219 z"
         style="stroke:none;stroke-width:1" />
      <g
         style="fill:none"
         id="g150"
         transform="matrix(1.1149508,0,0,1.0686932,10.509645,4.5220008)">
        <path
           id="path127"
           fill="#555753"
           d="m 231.148,2.43033 c -6.406,-3.240441 -13.946,-3.240441 -20.354,0 C 174.68,20.688 52.7173,82.3465 13.0505,102.399 c -7.70945,3.898 -12.579309,11.865 -12.579309,20.58 0,44.979 0,179.063 0,224.042 0,8.715 4.869859,16.682 12.579309,20.58 39.6668,20.053 161.6295,81.712 197.7435,99.97 6.408,3.239 13.948,3.239 20.354,0 36.114,-18.258 158.078,-79.917 197.745,-99.97 7.708,-3.898 12.578,-11.865 12.578,-20.58 0,-44.979 0,-179.063 0,-224.042 0,-8.715 -4.87,-16.682 -12.578,-20.58 C 389.226,82.3465 267.262,20.688 231.148,2.43033 Z"
           clip-rule="evenodd"
           fill-rule="evenodd" />
        <path
           id="path129"
           stroke-width="13"
           stroke="#888a85"
           fill="#2e3436"
           d="m 217.079,22.4283 v -4e-4 c 2.453,-1.2372 5.332,-1.2372 7.783,0 l 0.002,8e-4 191.186,96.4233 c 0,0 0,0 10e-4,0 1.489,0.752 2.715,1.902 3.572,3.302 0.864,1.41 1.348,3.062 1.348,4.797 v 216.098 c 0,1.735 -0.484,3.387 -1.348,4.797 -0.858,1.4 -2.083,2.55 -3.572,3.301 0,0 0,0 0,0 l -191.188,96.425 v 10e-4 c -2.451,1.236 -5.332,1.236 -7.785,-10e-4 0,0 0,0 0,0 L 25.8919,351.147 c -1.4899,-0.751 -2.7149,-1.901 -3.5726,-3.301 -0.864,-1.41 -1.3481,-3.062 -1.3481,-4.797 V 126.951 c 0,-1.735 0.484,-3.387 1.348,-4.797 0.8578,-1.4 2.0831,-2.55 3.573,-3.302 z" />
        <path
           id="path131"
           fill="#729fcf"
           d="m 207.699,110.493 c 0,-5.361 2.13,-9.438 5.922,-11.3333 3.792,-1.8956 8.936,-1.4541 14.298,1.2273 28.728,14.359 87.104,43.561 115.832,57.92 5.364,2.681 10.507,7.38 14.299,13.067 3.792,5.687 5.922,11.894 5.922,17.255 v 105.675 c 0,5.361 -2.13,9.438 -5.922,11.334 -3.792,1.895 -8.935,1.454 -14.299,-1.226 -28.728,-14.36 -87.104,-43.561 -115.832,-57.921 -5.362,-2.68 -10.506,-7.381 -14.298,-13.068 -3.792,-5.686 -5.922,-11.893 -5.922,-17.254 z" />
        <path
           id="path133"
           fill="#8ae234"
           d="m 142.585,143.05 c 0,-5.361 2.13,-9.438 5.922,-11.333 3.793,-1.896 8.936,-1.454 14.299,1.227 28.727,14.359 87.104,43.561 115.831,57.919 5.364,2.682 10.507,7.381 14.299,13.068 3.792,5.687 5.922,11.894 5.922,17.255 v 105.675 c 0,5.361 -2.13,9.438 -5.922,11.334 -3.792,1.895 -8.935,1.454 -14.299,-1.226 -28.727,-14.36 -87.104,-43.561 -115.831,-57.921 -5.363,-2.681 -10.506,-7.381 -14.299,-13.068 -3.792,-5.686 -5.922,-11.893 -5.922,-17.254 z" />
        <path
           id="path135"
           fill="#ef2929"
           d="m 77.4712,175.607 c 0,-5.361 2.1304,-9.438 5.9225,-11.334 3.7921,-1.895 8.9353,-1.454 14.298,1.228 28.7273,14.359 87.1043,43.56 115.8313,57.919 5.364,2.682 10.507,7.381 14.299,13.068 3.793,5.687 5.922,11.894 5.922,17.255 v 105.675 c 0,5.361 -2.129,9.438 -5.922,11.334 -3.792,1.895 -8.935,1.454 -14.299,-1.227 -28.727,-14.359 -87.104,-43.561 -115.8313,-57.92 -5.3627,-2.681 -10.5059,-7.381 -14.298,-13.068 -3.7921,-5.686 -5.9225,-11.893 -5.9225,-17.254 z" />
      </g>
    </g>
  </g>
</svg>
